# Blender 4.1.1
# www.blender.org
mtllib crate.mtl
o Cube
v 1.000000 1.000000 -1.000000
v -1.000000 1.000000 -1.000000
v 1.000000 1.000000 1.000000
v -1.000000 1.000000 1.000000
v 1.000000 -1.000000 -1.000000
v -1.000000 -1.000000 -1.000000
v 1.000000 -1.000000 1.000000
v -1.000000 -1.000000 1.000000
vn -0.0000 1.0000 -0.0000
vn -0.0000 -0.0000 1.0000
vn -0.0000 -1.0000 -0.0000
vn -0.0000 -0.0000 -1.0000
vn 1.0000 -0.0000 -0.0000
vn -1.0000 -0.0000 -0.0000
vt -0.005182 0.000794
vt 1.003099 0.504935
vt -0.005182 0.504935
vt 0.001120 0.503424
vt 0.996797 1.001263
vt 0.001120 1.001263
vt 1.003099 0.000794
vt 0.996797 0.503424
s 0
usemtl Material.001
f 2/1/1 3/2/1 1/3/1
f 4/4/2 7/5/2 3/6/2
f 8/1/3 5/2/3 7/3/3
f 6/4/4 1/5/4 5/6/4
f 7/3/5 1/7/5 3/2/5
f 4/3/6 6/7/6 8/2/6
f 2/1/1 4/7/1 3/2/1
f 4/4/2 8/8/2 7/5/2
f 8/1/3 6/7/3 5/2/3
f 6/4/4 2/8/4 1/5/4
f 7/3/5 5/1/5 1/7/5
f 4/3/6 2/1/6 6/7/6
